<svg xmlns="http://www.w3.org/2000/svg" xmlns:xlink="http://www.w3.org/1999/xlink" width="851" zoomAndPan="magnify" viewBox="0 0 638.25 236.249991" height="315" preserveAspectRatio="xMidYMid meet" version="1.0"><defs><g/><clipPath id="9eebed212f"><path d="M 480.835938 46.964844 L 529.117188 46.964844 L 529.117188 95.25 L 480.835938 95.25 Z M 480.835938 46.964844 " clip-rule="nonzero"/></clipPath><clipPath id="6f073b077f"><path d="M 532 47 L 579.699219 47 L 579.699219 96 L 532 96 Z M 532 47 " clip-rule="nonzero"/></clipPath><clipPath id="b08af6d752"><rect x="0" width="580" y="0" height="119"/></clipPath></defs><g transform="matrix(1, 0, 0, 1, 31, 52)"><g clip-path="url(#b08af6d752)"><g fill="#ffffff" fill-opacity="1"><g transform="translate(164.242104, 95.515665)"><g><path d="M 5.15625 -27.078125 L 36.109375 -27.078125 L 36.109375 -20.640625 L 5.15625 -20.640625 Z M 5.15625 -27.078125 "/></g></g></g><g fill="#ffffff" fill-opacity="1"><g transform="translate(201.375902, 95.515665)"><g><path d="M 15.46875 -56.734375 L 15.46875 0 L 7.734375 0 L 7.734375 -61.90625 L 20.640625 -61.90625 L 56.703125 -7.734375 L 92.765625 -61.90625 L 105.09375 -61.90625 L 105.09375 0 L 97.359375 0 L 97.359375 -55.890625 L 60.609375 0 L 52.796875 0 Z M 15.46875 -56.734375 "/></g></g></g><g fill="#ffffff" fill-opacity="1"><g transform="translate(310.070852, 95.515665)"><g><path d="M 32.234375 0.890625 C 27.078125 0.890625 22.695312 0.535156 19.09375 -0.171875 C 15.5 -0.890625 12.570312 -2.117188 10.3125 -3.859375 C 8.0625 -5.609375 6.425781 -7.945312 5.40625 -10.875 C 4.382812 -13.800781 3.875 -17.484375 3.875 -21.921875 C 3.875 -26.992188 4.382812 -31.191406 5.40625 -34.515625 C 6.425781 -37.835938 8.0625 -40.476562 10.3125 -42.4375 C 12.570312 -44.394531 15.5 -45.765625 19.09375 -46.546875 C 22.695312 -47.328125 27.078125 -47.71875 32.234375 -47.71875 C 35.921875 -47.71875 39.113281 -47.445312 41.8125 -46.90625 C 44.507812 -46.363281 46.816406 -45.582031 48.734375 -44.5625 C 50.660156 -43.539062 52.21875 -42.304688 53.40625 -40.859375 C 54.601562 -39.410156 55.546875 -37.882812 56.234375 -36.28125 C 56.921875 -34.6875 57.390625 -32.8125 57.640625 -30.65625 C 57.898438 -28.507812 58.03125 -26.242188 58.03125 -23.859375 L 57.390625 -21.28125 L 11.609375 -21.28125 C 11.609375 -17.726562 11.957031 -14.816406 12.65625 -12.546875 C 13.351562 -10.273438 14.503906 -8.613281 16.109375 -7.5625 C 17.722656 -6.519531 19.847656 -5.859375 22.484375 -5.578125 C 25.117188 -5.296875 28.367188 -5.15625 32.234375 -5.15625 C 35.785156 -5.15625 38.722656 -5.253906 41.046875 -5.453125 C 43.367188 -5.660156 45.210938 -6.046875 46.578125 -6.609375 C 47.953125 -7.171875 48.914062 -7.957031 49.46875 -8.96875 C 50.019531 -9.976562 50.296875 -11.285156 50.296875 -12.890625 L 58.03125 -12.890625 C 58.03125 -10.390625 57.59375 -8.257812 56.71875 -6.5 C 55.84375 -4.75 54.394531 -3.328125 52.375 -2.234375 C 50.363281 -1.148438 47.710938 -0.359375 44.421875 0.140625 C 41.140625 0.640625 37.078125 0.890625 32.234375 0.890625 Z M 32.234375 -41.265625 C 29.660156 -41.265625 27.359375 -41.207031 25.328125 -41.09375 C 23.296875 -40.988281 21.519531 -40.753906 20 -40.390625 C 18.488281 -40.035156 17.191406 -39.515625 16.109375 -38.828125 C 15.035156 -38.140625 14.171875 -37.332031 13.515625 -36.40625 C 12.859375 -35.476562 12.375 -34.175781 12.0625 -32.5 C 11.757812 -30.820312 11.609375 -28.800781 11.609375 -26.4375 L 50.296875 -26.4375 C 50.296875 -29.582031 49.957031 -32.046875 49.28125 -33.828125 C 48.613281 -35.617188 47.550781 -37.085938 46.09375 -38.234375 C 44.644531 -39.390625 42.78125 -40.179688 40.5 -40.609375 C 38.21875 -41.046875 35.460938 -41.265625 32.234375 -41.265625 Z M 32.234375 -41.265625 "/></g></g></g><g fill="#ffffff" fill-opacity="1"><g transform="translate(369.124281, 95.515665)"><g><path d="M 51.578125 0 L 51.578125 -25.796875 C 51.578125 -28.671875 51.363281 -31.09375 50.9375 -33.0625 C 50.507812 -35.039062 49.648438 -36.632812 48.359375 -37.84375 C 47.066406 -39.050781 45.238281 -39.921875 42.875 -40.453125 C 40.507812 -40.992188 37.394531 -41.265625 33.53125 -41.265625 C 29.332031 -41.265625 25.894531 -40.953125 23.21875 -40.328125 C 20.550781 -39.710938 18.453125 -38.84375 16.921875 -37.71875 C 15.390625 -36.59375 14.332031 -35.234375 13.75 -33.640625 C 13.175781 -32.054688 12.890625 -30.300781 12.890625 -28.375 L 12.890625 0 L 5.15625 0 L 5.15625 -46.421875 L 12.890625 -46.421875 L 12.890625 -38.6875 C 13.453125 -40 14.257812 -41.128906 15.3125 -42.078125 C 16.363281 -43.035156 17.546875 -43.847656 18.859375 -44.515625 C 20.171875 -45.191406 21.59375 -45.738281 23.125 -46.15625 C 24.65625 -46.570312 26.1875 -46.894531 27.71875 -47.125 C 29.25 -47.351562 30.734375 -47.507812 32.171875 -47.59375 C 33.609375 -47.675781 34.921875 -47.71875 36.109375 -47.71875 C 39.546875 -47.71875 42.503906 -47.5 44.984375 -47.0625 C 47.472656 -46.632812 49.582031 -46.003906 51.3125 -45.171875 C 53.050781 -44.335938 54.441406 -43.300781 55.484375 -42.0625 C 56.535156 -40.832031 57.347656 -39.40625 57.921875 -37.78125 C 58.503906 -36.15625 58.890625 -34.34375 59.078125 -32.34375 C 59.265625 -30.34375 59.359375 -28.160156 59.359375 -25.796875 L 59.3125 0 Z M 51.578125 0 "/></g></g></g><g fill="#ffffff" fill-opacity="1"><g transform="translate(429.507395, 95.515665)"><g><path d="M 50.296875 -20.640625 C 50.296875 -16.679688 49.972656 -13.378906 49.328125 -10.734375 C 48.679688 -8.085938 47.597656 -5.972656 46.078125 -4.390625 C 44.554688 -2.804688 42.5625 -1.675781 40.09375 -1 C 37.625 -0.332031 34.578125 0 30.953125 0 C 27.429688 0 24.472656 -0.265625 22.078125 -0.796875 C 19.691406 -1.335938 17.757812 -2.253906 16.28125 -3.546875 C 14.800781 -4.835938 13.738281 -6.554688 13.09375 -8.703125 C 12.445312 -10.847656 12.125 -13.535156 12.125 -16.765625 L 12.125 -40.0625 L 2.578125 -40.0625 L 2.578125 -46.421875 L 12.125 -46.421875 L 12.125 -59.125 L 19.859375 -59.125 L 19.859375 -46.421875 L 49 -46.421875 L 49 -40.0625 L 19.859375 -40.0625 L 19.859375 -16.765625 C 19.859375 -14.179688 20.050781 -12.191406 20.4375 -10.796875 C 20.832031 -9.398438 21.457031 -8.378906 22.3125 -7.734375 C 23.175781 -7.085938 24.3125 -6.710938 25.71875 -6.609375 C 27.132812 -6.503906 28.863281 -6.453125 30.90625 -6.453125 C 32.519531 -6.453125 33.960938 -6.476562 35.234375 -6.53125 C 36.515625 -6.582031 37.628906 -6.75 38.578125 -7.03125 C 39.535156 -7.3125 40.347656 -7.738281 41.015625 -8.3125 C 41.691406 -8.894531 42.238281 -9.707031 42.65625 -10.75 C 43.070312 -11.800781 43.375 -13.125 43.5625 -14.71875 C 43.75 -16.320312 43.84375 -18.296875 43.84375 -20.640625 Z M 50.296875 -20.640625 "/></g></g></g><g fill="#8ca0d0" fill-opacity="1"><g transform="translate(6.218969, 95.846563)"><g><path d="M 80 -61.90625 L 80 -30.953125 C 80 -27.296875 79.945312 -23.960938 79.84375 -20.953125 C 79.75 -17.941406 79.441406 -15.238281 78.921875 -12.84375 C 78.398438 -10.457031 77.570312 -8.378906 76.4375 -6.609375 C 75.3125 -4.835938 73.703125 -3.363281 71.609375 -2.1875 C 69.515625 -1.019531 66.847656 -0.148438 63.609375 0.421875 C 60.367188 1.003906 56.382812 1.296875 51.65625 1.296875 L 33.53125 1.296875 C 28.800781 1.296875 24.816406 1.003906 21.578125 0.421875 C 18.335938 -0.148438 15.671875 -1.019531 13.578125 -2.1875 C 11.484375 -3.363281 9.863281 -4.835938 8.71875 -6.609375 C 7.582031 -8.378906 6.75 -10.457031 6.21875 -12.84375 C 5.695312 -15.238281 5.394531 -17.941406 5.3125 -20.953125 C 5.238281 -23.960938 5.203125 -27.296875 5.203125 -30.953125 L 5.203125 -61.90625 L 12.9375 -61.90625 L 12.9375 -30.953125 C 12.9375 -27.078125 12.96875 -23.75 13.03125 -20.96875 C 13.101562 -18.1875 13.328125 -15.84375 13.703125 -13.9375 C 14.078125 -12.03125 14.671875 -10.5 15.484375 -9.34375 C 16.304688 -8.1875 17.484375 -7.300781 19.015625 -6.6875 C 20.546875 -6.070312 22.488281 -5.660156 24.84375 -5.453125 C 27.195312 -5.253906 30.09375 -5.15625 33.53125 -5.15625 L 51.65625 -5.15625 C 55.070312 -5.15625 57.960938 -5.253906 60.328125 -5.453125 C 62.691406 -5.660156 64.628906 -6.070312 66.140625 -6.6875 C 67.660156 -7.300781 68.835938 -8.1875 69.671875 -9.34375 C 70.503906 -10.5 71.113281 -12.03125 71.5 -13.9375 C 71.894531 -15.84375 72.117188 -18.1875 72.171875 -20.96875 C 72.222656 -23.75 72.25 -27.078125 72.25 -30.953125 L 72.21875 -61.90625 Z M 80 -61.90625 "/></g></g></g><g fill="#8ca0d0" fill-opacity="1"><g transform="translate(87.232325, 95.846563)"><g><path d="M 7.734375 -61.90625 L 54.234375 -61.90625 C 58.078125 -61.90625 61.320312 -61.734375 63.96875 -61.390625 C 66.613281 -61.054688 68.796875 -60.550781 70.515625 -59.875 C 72.234375 -59.207031 73.554688 -58.375 74.484375 -57.375 C 75.410156 -56.382812 76.085938 -55.21875 76.515625 -53.875 C 76.953125 -52.53125 77.203125 -51.023438 77.265625 -49.359375 C 77.335938 -47.691406 77.375 -45.851562 77.375 -43.84375 C 77.375 -41.75 77.328125 -39.8125 77.234375 -38.03125 C 77.140625 -36.257812 76.828125 -34.65625 76.296875 -33.21875 C 75.773438 -31.78125 74.941406 -30.519531 73.796875 -29.4375 C 72.660156 -28.351562 71.035156 -27.445312 68.921875 -26.71875 C 66.816406 -25.988281 64.144531 -25.4375 60.90625 -25.0625 C 57.675781 -24.6875 53.695312 -24.5 48.96875 -24.5 L 15.46875 -24.5 L 15.46875 0 L 7.734375 0 Z M 15.46875 -30.953125 L 48.96875 -30.953125 C 52.40625 -30.953125 55.296875 -31.007812 57.640625 -31.125 C 59.992188 -31.25 61.9375 -31.472656 63.46875 -31.796875 C 65 -32.117188 66.179688 -32.570312 67.015625 -33.15625 C 67.847656 -33.75 68.457031 -34.53125 68.84375 -35.5 C 69.238281 -36.46875 69.46875 -37.628906 69.53125 -38.984375 C 69.601562 -40.347656 69.640625 -41.96875 69.640625 -43.84375 C 69.640625 -45.59375 69.601562 -47.097656 69.53125 -48.359375 C 69.46875 -49.617188 69.238281 -50.675781 68.84375 -51.53125 C 68.457031 -52.394531 67.847656 -53.082031 67.015625 -53.59375 C 66.179688 -54.101562 65 -54.5 63.46875 -54.78125 C 61.9375 -55.0625 59.992188 -55.242188 57.640625 -55.328125 C 55.296875 -55.410156 52.40625 -55.453125 48.96875 -55.453125 L 15.46875 -55.453125 Z M 15.46875 -30.953125 "/></g></g></g><g fill="#ffffff" fill-opacity="1"><g transform="translate(159.042478, 95.515665)"><g><path d="M 5.15625 -27.078125 L 36.109375 -27.078125 L 36.109375 -20.640625 L 5.15625 -20.640625 Z M 5.15625 -27.078125 "/></g></g></g><g fill="#ffffff" fill-opacity="1"><g transform="translate(196.176276, 95.515665)"><g><path d="M 15.46875 -56.734375 L 15.46875 0 L 7.734375 0 L 7.734375 -61.90625 L 20.640625 -61.90625 L 56.703125 -7.734375 L 92.765625 -61.90625 L 105.09375 -61.90625 L 105.09375 0 L 97.359375 0 L 97.359375 -55.890625 L 60.609375 0 L 52.796875 0 Z M 15.46875 -56.734375 "/></g></g></g><g fill="#ffffff" fill-opacity="1"><g transform="translate(304.871226, 95.515665)"><g><path d="M 32.234375 0.890625 C 27.078125 0.890625 22.695312 0.535156 19.09375 -0.171875 C 15.5 -0.890625 12.570312 -2.117188 10.3125 -3.859375 C 8.0625 -5.609375 6.425781 -7.945312 5.40625 -10.875 C 4.382812 -13.800781 3.875 -17.484375 3.875 -21.921875 C 3.875 -26.992188 4.382812 -31.191406 5.40625 -34.515625 C 6.425781 -37.835938 8.0625 -40.476562 10.3125 -42.4375 C 12.570312 -44.394531 15.5 -45.765625 19.09375 -46.546875 C 22.695312 -47.328125 27.078125 -47.71875 32.234375 -47.71875 C 35.921875 -47.71875 39.113281 -47.445312 41.8125 -46.90625 C 44.507812 -46.363281 46.816406 -45.582031 48.734375 -44.5625 C 50.660156 -43.539062 52.21875 -42.304688 53.40625 -40.859375 C 54.601562 -39.410156 55.546875 -37.882812 56.234375 -36.28125 C 56.921875 -34.6875 57.390625 -32.8125 57.640625 -30.65625 C 57.898438 -28.507812 58.03125 -26.242188 58.03125 -23.859375 L 57.390625 -21.28125 L 11.609375 -21.28125 C 11.609375 -17.726562 11.957031 -14.816406 12.65625 -12.546875 C 13.351562 -10.273438 14.503906 -8.613281 16.109375 -7.5625 C 17.722656 -6.519531 19.847656 -5.859375 22.484375 -5.578125 C 25.117188 -5.296875 28.367188 -5.15625 32.234375 -5.15625 C 35.785156 -5.15625 38.722656 -5.253906 41.046875 -5.453125 C 43.367188 -5.660156 45.210938 -6.046875 46.578125 -6.609375 C 47.953125 -7.171875 48.914062 -7.957031 49.46875 -8.96875 C 50.019531 -9.976562 50.296875 -11.285156 50.296875 -12.890625 L 58.03125 -12.890625 C 58.03125 -10.390625 57.59375 -8.257812 56.71875 -6.5 C 55.84375 -4.75 54.394531 -3.328125 52.375 -2.234375 C 50.363281 -1.148438 47.710938 -0.359375 44.421875 0.140625 C 41.140625 0.640625 37.078125 0.890625 32.234375 0.890625 Z M 32.234375 -41.265625 C 29.660156 -41.265625 27.359375 -41.207031 25.328125 -41.09375 C 23.296875 -40.988281 21.519531 -40.753906 20 -40.390625 C 18.488281 -40.035156 17.191406 -39.515625 16.109375 -38.828125 C 15.035156 -38.140625 14.171875 -37.332031 13.515625 -36.40625 C 12.859375 -35.476562 12.375 -34.175781 12.0625 -32.5 C 11.757812 -30.820312 11.609375 -28.800781 11.609375 -26.4375 L 50.296875 -26.4375 C 50.296875 -29.582031 49.957031 -32.046875 49.28125 -33.828125 C 48.613281 -35.617188 47.550781 -37.085938 46.09375 -38.234375 C 44.644531 -39.390625 42.78125 -40.179688 40.5 -40.609375 C 38.21875 -41.046875 35.460938 -41.265625 32.234375 -41.265625 Z M 32.234375 -41.265625 "/></g></g></g><g fill="#ffffff" fill-opacity="1"><g transform="translate(363.924655, 95.515665)"><g><path d="M 51.578125 0 L 51.578125 -25.796875 C 51.578125 -28.671875 51.363281 -31.09375 50.9375 -33.0625 C 50.507812 -35.039062 49.648438 -36.632812 48.359375 -37.84375 C 47.066406 -39.050781 45.238281 -39.921875 42.875 -40.453125 C 40.507812 -40.992188 37.394531 -41.265625 33.53125 -41.265625 C 29.332031 -41.265625 25.894531 -40.953125 23.21875 -40.328125 C 20.550781 -39.710938 18.453125 -38.84375 16.921875 -37.71875 C 15.390625 -36.59375 14.332031 -35.234375 13.75 -33.640625 C 13.175781 -32.054688 12.890625 -30.300781 12.890625 -28.375 L 12.890625 0 L 5.15625 0 L 5.15625 -46.421875 L 12.890625 -46.421875 L 12.890625 -38.6875 C 13.453125 -40 14.257812 -41.128906 15.3125 -42.078125 C 16.363281 -43.035156 17.546875 -43.847656 18.859375 -44.515625 C 20.171875 -45.191406 21.59375 -45.738281 23.125 -46.15625 C 24.65625 -46.570312 26.1875 -46.894531 27.71875 -47.125 C 29.25 -47.351562 30.734375 -47.507812 32.171875 -47.59375 C 33.609375 -47.675781 34.921875 -47.71875 36.109375 -47.71875 C 39.546875 -47.71875 42.503906 -47.5 44.984375 -47.0625 C 47.472656 -46.632812 49.582031 -46.003906 51.3125 -45.171875 C 53.050781 -44.335938 54.441406 -43.300781 55.484375 -42.0625 C 56.535156 -40.832031 57.347656 -39.40625 57.921875 -37.78125 C 58.503906 -36.15625 58.890625 -34.34375 59.078125 -32.34375 C 59.265625 -30.34375 59.359375 -28.160156 59.359375 -25.796875 L 59.3125 0 Z M 51.578125 0 "/></g></g></g><g fill="#ffffff" fill-opacity="1"><g transform="translate(424.307768, 95.515665)"><g><path d="M 50.296875 -20.640625 C 50.296875 -16.679688 49.972656 -13.378906 49.328125 -10.734375 C 48.679688 -8.085938 47.597656 -5.972656 46.078125 -4.390625 C 44.554688 -2.804688 42.5625 -1.675781 40.09375 -1 C 37.625 -0.332031 34.578125 0 30.953125 0 C 27.429688 0 24.472656 -0.265625 22.078125 -0.796875 C 19.691406 -1.335938 17.757812 -2.253906 16.28125 -3.546875 C 14.800781 -4.835938 13.738281 -6.554688 13.09375 -8.703125 C 12.445312 -10.847656 12.125 -13.535156 12.125 -16.765625 L 12.125 -40.0625 L 2.578125 -40.0625 L 2.578125 -46.421875 L 12.125 -46.421875 L 12.125 -59.125 L 19.859375 -59.125 L 19.859375 -46.421875 L 49 -46.421875 L 49 -40.0625 L 19.859375 -40.0625 L 19.859375 -16.765625 C 19.859375 -14.179688 20.050781 -12.191406 20.4375 -10.796875 C 20.832031 -9.398438 21.457031 -8.378906 22.3125 -7.734375 C 23.175781 -7.085938 24.3125 -6.710938 25.71875 -6.609375 C 27.132812 -6.503906 28.863281 -6.453125 30.90625 -6.453125 C 32.519531 -6.453125 33.960938 -6.476562 35.234375 -6.53125 C 36.515625 -6.582031 37.628906 -6.75 38.578125 -7.03125 C 39.535156 -7.3125 40.347656 -7.738281 41.015625 -8.3125 C 41.691406 -8.894531 42.238281 -9.707031 42.65625 -10.75 C 43.070312 -11.800781 43.375 -13.125 43.5625 -14.71875 C 43.75 -16.320312 43.84375 -18.296875 43.84375 -20.640625 Z M 50.296875 -20.640625 "/></g></g></g><g clip-path="url(#9eebed212f)"><path fill="#8ca0d0" d="M 504.878906 95.441406 C 504.085938 95.441406 503.292969 95.402344 502.503906 95.324219 C 501.714844 95.246094 500.929688 95.132812 500.152344 94.976562 C 499.371094 94.820312 498.601562 94.628906 497.84375 94.398438 C 497.082031 94.167969 496.335938 93.902344 495.605469 93.597656 C 494.871094 93.292969 494.152344 92.953125 493.453125 92.578125 C 492.753906 92.207031 492.074219 91.796875 491.414062 91.355469 C 490.753906 90.917969 490.117188 90.445312 489.503906 89.941406 C 488.890625 89.4375 488.300781 88.902344 487.742188 88.34375 C 487.179688 87.78125 486.648438 87.195312 486.144531 86.582031 C 485.640625 85.964844 485.167969 85.328125 484.726562 84.667969 C 484.285156 84.011719 483.878906 83.328125 483.503906 82.628906 C 483.128906 81.929688 482.789062 81.210938 482.488281 80.480469 C 482.183594 79.746094 481.914062 79 481.683594 78.238281 C 481.453125 77.480469 481.261719 76.710938 481.105469 75.933594 C 480.953125 75.152344 480.835938 74.371094 480.757812 73.578125 C 480.679688 72.789062 480.640625 71.996094 480.640625 71.203125 C 480.640625 70.410156 480.679688 69.617188 480.757812 68.828125 C 480.835938 68.039062 480.953125 67.253906 481.105469 66.476562 C 481.261719 65.695312 481.453125 64.929688 481.683594 64.167969 C 481.914062 63.410156 482.183594 62.660156 482.488281 61.929688 C 482.789062 61.195312 483.128906 60.476562 483.503906 59.777344 C 483.878906 59.078125 484.285156 58.398438 484.726562 57.738281 C 485.167969 57.078125 485.640625 56.441406 486.144531 55.828125 C 486.648438 55.214844 487.179688 54.625 487.742188 54.066406 C 488.300781 53.503906 488.890625 52.972656 489.503906 52.46875 C 490.117188 51.964844 490.753906 51.492188 491.414062 51.050781 C 492.074219 50.609375 492.753906 50.203125 493.453125 49.828125 C 494.152344 49.453125 494.871094 49.113281 495.605469 48.8125 C 496.335938 48.507812 497.082031 48.242188 497.84375 48.011719 C 498.601562 47.78125 499.371094 47.585938 500.152344 47.433594 C 500.929688 47.277344 501.714844 47.160156 502.503906 47.082031 C 503.292969 47.003906 504.085938 46.964844 504.878906 46.964844 C 505.671875 46.964844 506.464844 47.003906 507.253906 47.082031 C 508.046875 47.160156 508.828125 47.277344 509.609375 47.433594 C 510.386719 47.585938 511.15625 47.78125 511.914062 48.011719 C 512.675781 48.242188 513.421875 48.507812 514.15625 48.8125 C 514.886719 49.113281 515.605469 49.453125 516.304688 49.828125 C 517.003906 50.203125 517.683594 50.609375 518.34375 51.050781 C 519.003906 51.492188 519.640625 51.964844 520.253906 52.46875 C 520.871094 52.972656 521.457031 53.503906 522.019531 54.066406 C 522.578125 54.625 523.113281 55.214844 523.617188 55.828125 C 524.117188 56.441406 524.589844 57.078125 525.03125 57.738281 C 525.472656 58.398438 525.882812 59.078125 526.253906 59.777344 C 526.628906 60.476562 526.96875 61.195312 527.273438 61.929688 C 527.574219 62.660156 527.84375 63.410156 528.074219 64.167969 C 528.304688 64.929688 528.496094 65.695312 528.652344 66.476562 C 528.804688 67.253906 528.921875 68.039062 529 68.828125 C 529.078125 69.617188 529.117188 70.410156 529.117188 71.203125 C 529.117188 71.996094 529.078125 72.789062 529 73.578125 C 528.921875 74.371094 528.804688 75.152344 528.652344 75.933594 C 528.496094 76.710938 528.304688 77.480469 528.074219 78.238281 C 527.84375 79 527.574219 79.746094 527.273438 80.480469 C 526.96875 81.210938 526.628906 81.929688 526.253906 82.628906 C 525.882812 83.328125 525.472656 84.011719 525.03125 84.667969 C 524.589844 85.328125 524.117188 85.964844 523.617188 86.582031 C 523.113281 87.195312 522.578125 87.78125 522.019531 88.34375 C 521.457031 88.902344 520.871094 89.4375 520.253906 89.941406 C 519.640625 90.445312 519.003906 90.917969 518.34375 91.355469 C 517.683594 91.796875 517.003906 92.207031 516.304688 92.578125 C 515.605469 92.953125 514.886719 93.292969 514.15625 93.597656 C 513.421875 93.902344 512.675781 94.167969 511.914062 94.398438 C 511.15625 94.628906 510.386719 94.820312 509.609375 94.976562 C 508.828125 95.132812 508.046875 95.246094 507.253906 95.324219 C 506.464844 95.402344 505.671875 95.441406 504.878906 95.441406 Z M 504.878906 95.441406 " fill-opacity="1" fill-rule="nonzero"/></g><path fill="#181f2e" d="M 489.746094 75.519531 C 489.746094 74.992188 489.949219 74.464844 490.351562 74.0625 L 504.878906 59.535156 L 519.40625 74.0625 C 520.210938 74.867188 520.210938 76.171875 519.40625 76.976562 C 518.601562 77.78125 517.296875 77.78125 516.492188 76.976562 L 504.878906 65.367188 L 493.265625 76.976562 C 492.460938 77.78125 491.15625 77.78125 490.351562 76.976562 C 489.949219 76.574219 489.746094 76.046875 489.746094 75.519531 Z M 489.746094 75.519531 " fill-opacity="1" fill-rule="nonzero"/><g fill="#8ca0d0" fill-opacity="1"><g transform="translate(1.019335, 95.846563)"><g><path d="M 80 -61.90625 L 80 -30.953125 C 80 -27.296875 79.945312 -23.960938 79.84375 -20.953125 C 79.75 -17.941406 79.441406 -15.238281 78.921875 -12.84375 C 78.398438 -10.457031 77.570312 -8.378906 76.4375 -6.609375 C 75.3125 -4.835938 73.703125 -3.363281 71.609375 -2.1875 C 69.515625 -1.019531 66.847656 -0.148438 63.609375 0.421875 C 60.367188 1.003906 56.382812 1.296875 51.65625 1.296875 L 33.53125 1.296875 C 28.800781 1.296875 24.816406 1.003906 21.578125 0.421875 C 18.335938 -0.148438 15.671875 -1.019531 13.578125 -2.1875 C 11.484375 -3.363281 9.863281 -4.835938 8.71875 -6.609375 C 7.582031 -8.378906 6.75 -10.457031 6.21875 -12.84375 C 5.695312 -15.238281 5.394531 -17.941406 5.3125 -20.953125 C 5.238281 -23.960938 5.203125 -27.296875 5.203125 -30.953125 L 5.203125 -61.90625 L 12.9375 -61.90625 L 12.9375 -30.953125 C 12.9375 -27.078125 12.96875 -23.75 13.03125 -20.96875 C 13.101562 -18.1875 13.328125 -15.84375 13.703125 -13.9375 C 14.078125 -12.03125 14.671875 -10.5 15.484375 -9.34375 C 16.304688 -8.1875 17.484375 -7.300781 19.015625 -6.6875 C 20.546875 -6.070312 22.488281 -5.660156 24.84375 -5.453125 C 27.195312 -5.253906 30.09375 -5.15625 33.53125 -5.15625 L 51.65625 -5.15625 C 55.070312 -5.15625 57.960938 -5.253906 60.328125 -5.453125 C 62.691406 -5.660156 64.628906 -6.070312 66.140625 -6.6875 C 67.660156 -7.300781 68.835938 -8.1875 69.671875 -9.34375 C 70.503906 -10.5 71.113281 -12.03125 71.5 -13.9375 C 71.894531 -15.84375 72.117188 -18.1875 72.171875 -20.96875 C 72.222656 -23.75 72.25 -27.078125 72.25 -30.953125 L 72.21875 -61.90625 Z M 80 -61.90625 "/></g></g></g><g fill="#8ca0d0" fill-opacity="1"><g transform="translate(82.03269, 95.846563)"><g><path d="M 7.734375 -61.90625 L 54.234375 -61.90625 C 58.078125 -61.90625 61.320312 -61.734375 63.96875 -61.390625 C 66.613281 -61.054688 68.796875 -60.550781 70.515625 -59.875 C 72.234375 -59.207031 73.554688 -58.375 74.484375 -57.375 C 75.410156 -56.382812 76.085938 -55.21875 76.515625 -53.875 C 76.953125 -52.53125 77.203125 -51.023438 77.265625 -49.359375 C 77.335938 -47.691406 77.375 -45.851562 77.375 -43.84375 C 77.375 -41.75 77.328125 -39.8125 77.234375 -38.03125 C 77.140625 -36.257812 76.828125 -34.65625 76.296875 -33.21875 C 75.773438 -31.78125 74.941406 -30.519531 73.796875 -29.4375 C 72.660156 -28.351562 71.035156 -27.445312 68.921875 -26.71875 C 66.816406 -25.988281 64.144531 -25.4375 60.90625 -25.0625 C 57.675781 -24.6875 53.695312 -24.5 48.96875 -24.5 L 15.46875 -24.5 L 15.46875 0 L 7.734375 0 Z M 15.46875 -30.953125 L 48.96875 -30.953125 C 52.40625 -30.953125 55.296875 -31.007812 57.640625 -31.125 C 59.992188 -31.25 61.9375 -31.472656 63.46875 -31.796875 C 65 -32.117188 66.179688 -32.570312 67.015625 -33.15625 C 67.847656 -33.75 68.457031 -34.53125 68.84375 -35.5 C 69.238281 -36.46875 69.46875 -37.628906 69.53125 -38.984375 C 69.601562 -40.347656 69.640625 -41.96875 69.640625 -43.84375 C 69.640625 -45.59375 69.601562 -47.097656 69.53125 -48.359375 C 69.46875 -49.617188 69.238281 -50.675781 68.84375 -51.53125 C 68.457031 -52.394531 67.847656 -53.082031 67.015625 -53.59375 C 66.179688 -54.101562 65 -54.5 63.46875 -54.78125 C 61.9375 -55.0625 59.992188 -55.242188 57.640625 -55.328125 C 55.296875 -55.410156 52.40625 -55.453125 48.96875 -55.453125 L 15.46875 -55.453125 Z M 15.46875 -30.953125 "/></g></g></g><g fill="#ffffff" fill-opacity="1"><g transform="translate(524.996132, 95.515665)"><g><path d="M 45.140625 -31.3125 C 45.140625 -33.25 44.992188 -34.851562 44.703125 -36.125 C 44.421875 -37.40625 43.753906 -38.425781 42.703125 -39.1875 C 41.660156 -39.957031 40.113281 -40.492188 38.0625 -40.796875 C 36.007812 -41.109375 33.207031 -41.265625 29.65625 -41.265625 C 26.195312 -41.265625 23.378906 -40.960938 21.203125 -40.359375 C 19.023438 -39.753906 17.316406 -38.898438 16.078125 -37.796875 C 14.835938 -36.691406 13.992188 -35.375 13.546875 -33.84375 C 13.109375 -32.3125 12.890625 -30.609375 12.890625 -28.734375 L 12.890625 0 L 5.15625 0 L 5.15625 -46.421875 L 12.890625 -46.421875 L 12.890625 -39.046875 C 13.160156 -39.878906 13.65625 -40.800781 14.375 -41.8125 C 15.101562 -42.820312 16.207031 -43.757812 17.6875 -44.625 C 19.164062 -45.5 21.078125 -46.234375 23.421875 -46.828125 C 25.773438 -47.421875 28.710938 -47.71875 32.234375 -47.71875 C 36.265625 -47.71875 39.539062 -47.359375 42.0625 -46.640625 C 44.59375 -45.929688 46.5625 -44.882812 47.96875 -43.5 C 49.382812 -42.113281 50.335938 -40.398438 50.828125 -38.359375 C 51.328125 -36.316406 51.578125 -33.96875 51.578125 -31.3125 Z M 45.140625 -31.3125 "/></g></g></g><g clip-path="url(#6f073b077f)"><g fill="#ffffff" fill-opacity="1"><g transform="translate(527.472127, 95.515665)"><g><path d="M 45.140625 -31.3125 C 45.140625 -33.25 44.992188 -34.851562 44.703125 -36.125 C 44.421875 -37.40625 43.753906 -38.425781 42.703125 -39.1875 C 41.660156 -39.957031 40.113281 -40.492188 38.0625 -40.796875 C 36.007812 -41.109375 33.207031 -41.265625 29.65625 -41.265625 C 26.195312 -41.265625 23.378906 -40.960938 21.203125 -40.359375 C 19.023438 -39.753906 17.316406 -38.898438 16.078125 -37.796875 C 14.835938 -36.691406 13.992188 -35.375 13.546875 -33.84375 C 13.109375 -32.3125 12.890625 -30.609375 12.890625 -28.734375 L 12.890625 0 L 5.15625 0 L 5.15625 -46.421875 L 12.890625 -46.421875 L 12.890625 -39.046875 C 13.160156 -39.878906 13.65625 -40.800781 14.375 -41.8125 C 15.101562 -42.820312 16.207031 -43.757812 17.6875 -44.625 C 19.164062 -45.5 21.078125 -46.234375 23.421875 -46.828125 C 25.773438 -47.421875 28.710938 -47.71875 32.234375 -47.71875 C 36.265625 -47.71875 39.539062 -47.359375 42.0625 -46.640625 C 44.59375 -45.929688 46.5625 -44.882812 47.96875 -43.5 C 49.382812 -42.113281 50.335938 -40.398438 50.828125 -38.359375 C 51.328125 -36.316406 51.578125 -33.96875 51.578125 -31.3125 Z M 45.140625 -31.3125 "/></g></g></g></g></g></g></svg>